<svg id="Layer_1" data-name="Layer 1" xmlns="http://www.w3.org/2000/svg" xmlns:xlink="http://www.w3.org/1999/xlink" viewBox="0 0 63.53 42.68"><defs><style>.cls-1,.cls-4{fill:none;}.cls-2{clip-path:url(#clip-path);}.cls-3{fill:gray;}.cls-4{stroke:gray;stroke-miterlimit:10;}</style><clipPath id="clip-path"><rect class="cls-1" x="22.4" y="7.19" width="18.47" height="27.96"/></clipPath></defs><g id="Group_69" data-name="Group 69"><g class="cls-2"><g id="Group_68" data-name="Group 68"><path id="Path_87" data-name="Path 87" class="cls-3" d="M31.63,7.19c-5.07,0-9.23,3.78-9.23,8.52a13.86,13.86,0,0,0,2.65,6.93,15,15,0,0,0,2,2.3l3.09,5.74h-.9v4.48H34V30.68h-.89l3.16-5.89a14,14,0,0,0,1.92-2.28,14.12,14.12,0,0,0,2.65-6.8c0-4.74-4.16-8.51-9.24-8.52m7.79,5.87a7.7,7.7,0,0,1,.44,1.56H23.41a6.86,6.86,0,0,1,.35-1.33H39.42ZM31.63,8.12a8.42,8.42,0,0,1,7.46,4.24H24.18a8.41,8.41,0,0,1,7.45-4.24m-6.47,13a13.19,13.19,0,0,1-.7-1.34H38.74A13.4,13.4,0,0,1,38,21.1Zm8,13.13H30.16V31.6h2.95Zm-1-3.55h-.9l-2.43-4.49a6.17,6.17,0,0,0,2.87.78,5.77,5.77,0,0,0,2.89-.83ZM31.63,26a5.87,5.87,0,0,1-3.85-1.69h0a13.13,13.13,0,0,1-2-2.24l0-.08H37.43c-1.54,2.25-3.65,4-5.8,4m7.52-7.2H24.06a9.13,9.13,0,0,1-.74-3.13.86.86,0,0,1,0-.16H39.94v.16a9,9,0,0,1-.79,3.13"/></g></g></g><rect class="cls-4" x="1.88" y="1.68" width="59.5" height="39" rx="19.5"/></svg>