<svg xmlns="http://www.w3.org/2000/svg" xmlns:xlink="http://www.w3.org/1999/xlink" viewBox="0 0 125.28 125.3"><defs><style>.cls-1{fill:none;}.cls-2{fill:#fff;}.cls-3{clip-path:url(#clip-path);}</style><clipPath id="clip-path"><rect class="cls-1" x="27.82" y="25.34" width="58.49" height="63.94"/></clipPath></defs><g id="Layer_2" data-name="Layer 2"><g id="Group_97" data-name="Group 97"><path id="Path_29" data-name="Path 29" class="cls-2" d="M48.34,83.8l9.27,4.6L71.19,61.2Z"/><g id="Group_22" data-name="Group 22"><g class="cls-3"><g id="Group_21" data-name="Group 21"><path id="Path_30" data-name="Path 30" class="cls-2" d="M54.88,38.28,27.82,65,46.53,83.89,73.6,57.11,74.31,46l-8.25-8.31Zm14.58,9.51a5.31,5.31,0,0,1-1.58,3.77L67,50.69l.86.87a5.3,5.3,0,0,1-3.73,1.53h0a5.29,5.29,0,0,1-5.31-5.29h0A5.21,5.21,0,0,1,60.4,44a5.32,5.32,0,0,1,9.06,3.76"/><path id="Path_31" data-name="Path 31" class="cls-2" d="M84.93,26.75a4.74,4.74,0,0,0-7.79,5.09,4.74,4.74,0,0,0-1.78-.35h0a4.74,4.74,0,1,0,4.77,4.75,4.83,4.83,0,0,0-.34-1.76,4.75,4.75,0,0,0,5-.91l.13-.11a4.76,4.76,0,0,0,0-6.71M77,37.87a2.35,2.35,0,0,1-1.64.67,2.25,2.25,0,0,1-1.64-.69,2.32,2.32,0,1,1,3.28,0h0m6.21-6.14h0a2.32,2.32,0,0,1-3.28,0h0a2.32,2.32,0,0,1,1.65-3.94,2.35,2.35,0,0,1,1.66.68,2.32,2.32,0,0,1,0,3.27"/></g></g></g></g><polygon class="cls-2" points="32.4 70.9 30.41 74.87 42.09 80.66 32.4 70.9"/></g></svg>