<svg id="Layer_1" data-name="Layer 1" xmlns="http://www.w3.org/2000/svg" xmlns:xlink="http://www.w3.org/1999/xlink" viewBox="0 0 63.53 42.68"><defs><style>.cls-1,.cls-4{fill:none;}.cls-2{clip-path:url(#clip-path);}.cls-3{fill:gray;}.cls-4{stroke:gray;stroke-miterlimit:10;}</style><clipPath id="clip-path"><rect class="cls-1" x="21.93" y="7.19" width="19.67" height="27.96"/></clipPath></defs><g id="Group_71" data-name="Group 71"><g class="cls-2"><g id="Group_70" data-name="Group 70"><path id="Path_88" data-name="Path 88" class="cls-3" d="M31.77,35.16c5.7,0,9.83-3.74,9.83-8.88,0-5.34-6.78-11.69-9.67-11.93a9.82,9.82,0,0,1,2.85-4.94A9.24,9.24,0,0,1,37,7.82l-.33-.63a10,10,0,0,0-2.35,1.72,10.25,10.25,0,0,0-3.08,5.5c-3.07.74-9.27,6.77-9.27,11.87s4.14,8.88,9.84,8.88m0-19.87c2.44,0,8.88,6.1,8.88,11,0,4.67-3.66,7.93-8.88,7.93S22.88,31,22.88,26.28c0-4.89,6.44-11,8.89-11"/><path id="Path_89" data-name="Path 89" class="cls-3" d="M25.79,26.18a.69.69,0,0,0-.69-.69.69.69,0,1,0,.69.69h0"/><path id="Path_90" data-name="Path 90" class="cls-3" d="M28.27,26.18a.69.69,0,1,0-.68.68.68.68,0,0,0,.68-.68h0"/><path id="Path_91" data-name="Path 91" class="cls-3" d="M31.83,20.1a.69.69,0,0,0,.69-.69.68.68,0,0,0-.68-.69.69.69,0,0,0-.69.69h0a.7.7,0,0,0,.68.69"/><path id="Path_92" data-name="Path 92" class="cls-3" d="M30.28,18.35a.69.69,0,1,0-.68-.69h0a.68.68,0,0,0,.69.68"/><path id="Path_93" data-name="Path 93" class="cls-3" d="M33.24,18.35a.67.67,0,0,0,.68-.68.68.68,0,0,0-.68-.69.69.69,0,0,0-.69.69.68.68,0,0,0,.69.68h0"/><path id="Path_94" data-name="Path 94" class="cls-3" d="M31.83,31.73a.69.69,0,1,0,.69.69.69.69,0,0,0-.69-.69h0"/><path id="Path_95" data-name="Path 95" class="cls-3" d="M31.69,22.83a.69.69,0,1,0-.69-.69.7.7,0,0,0,.69.69h0"/><path id="Path_96" data-name="Path 96" class="cls-3" d="M28.77,27.91a.69.69,0,1,0-1.19.69.69.69,0,0,0,.94.25.68.68,0,0,0,.25-.93h0"/><path id="Path_97" data-name="Path 97" class="cls-3" d="M30.08,29.17a.69.69,0,0,0-.94.25.68.68,0,0,0,.25.93.69.69,0,0,0,.94-.24h0a.68.68,0,0,0-.25-.93"/><path id="Path_98" data-name="Path 98" class="cls-3" d="M31.83,29.6a.69.69,0,0,0,0,1.37.68.68,0,0,0,.69-.68h0a.69.69,0,0,0-.69-.69h0"/><path id="Path_99" data-name="Path 99" class="cls-3" d="M34.26,30.28a.68.68,0,1,0-.94-.25.69.69,0,0,0,.93.26h0"/><path id="Path_100" data-name="Path 100" class="cls-3" d="M36,28.48a.69.69,0,1,0-.93.25h0a.68.68,0,0,0,.93-.25h0"/><path id="Path_101" data-name="Path 101" class="cls-3" d="M35.94,26.72a.68.68,0,0,0,.69-.68.69.69,0,0,0-1.37,0h0a.68.68,0,0,0,.68.68"/><path id="Path_102" data-name="Path 102" class="cls-3" d="M34.75,24.3a.69.69,0,1,0,.26-.94.69.69,0,0,0-.26.94h0"/><path id="Path_103" data-name="Path 103" class="cls-3" d="M33.45,23.05a.69.69,0,0,0,.69-1.19.69.69,0,1,0-.69,1.19h0"/><path id="Path_104" data-name="Path 104" class="cls-3" d="M30,23.12a.69.69,0,1,0-.94-.25.69.69,0,0,0,.94.25h0"/><path id="Path_105" data-name="Path 105" class="cls-3" d="M27.52,23.73a.69.69,0,0,0,.25.94.68.68,0,0,0,.93-.25.69.69,0,0,0-.25-.94.68.68,0,0,0-.93.25h0"/><path id="Path_106" data-name="Path 106" class="cls-3" d="M25.37,28.09A.69.69,0,0,0,25,29a.68.68,0,0,0,.9.36.68.68,0,0,0-.52-1.26h0"/><path id="Path_107" data-name="Path 107" class="cls-3" d="M26.62,30.38a.69.69,0,1,0,1,1,.69.69,0,0,0,0-1h0a.68.68,0,0,0-1,0"/><path id="Path_108" data-name="Path 108" class="cls-3" d="M29.54,31.66a.68.68,0,1,0,.37.9.68.68,0,0,0-.37-.9h0"/><path id="Path_109" data-name="Path 109" class="cls-3" d="M34.12,31.6a.69.69,0,0,0-.37.9.69.69,0,1,0,.37-.9h0"/><path id="Path_110" data-name="Path 110" class="cls-3" d="M36,30.28a.69.69,0,1,0,1,0h0a.68.68,0,0,0-1,0"/><path id="Path_111" data-name="Path 111" class="cls-3" d="M38.21,28a.69.69,0,1,0-.52,1.27A.69.69,0,0,0,38.22,28h0"/><path id="Path_112" data-name="Path 112" class="cls-3" d="M37.74,26a.69.69,0,1,0,.69-.69.68.68,0,0,0-.69.69h0"/><path id="Path_113" data-name="Path 113" class="cls-3" d="M38.16,24.13a.7.7,0,0,0,.37-.9.69.69,0,1,0-.38.9h0"/><path id="Path_114" data-name="Path 114" class="cls-3" d="M36.91,21.83a.69.69,0,1,0-1,0h0a.68.68,0,0,0,1,0h0"/><path id="Path_115" data-name="Path 115" class="cls-3" d="M33.61,19.66a.7.7,0,0,0,.38.9.69.69,0,0,0,.89-.38.67.67,0,0,0-.37-.89.69.69,0,0,0-.9.37h0"/><path id="Path_116" data-name="Path 116" class="cls-3" d="M29.41,20.61a.68.68,0,1,0-.9-.37.69.69,0,0,0,.9.37h0"/><path id="Path_117" data-name="Path 117" class="cls-3" d="M27.49,21.93a.69.69,0,1,0-1,0h0a.68.68,0,0,0,1,0h0"/><path id="Path_118" data-name="Path 118" class="cls-3" d="M25.32,24.25A.68.68,0,1,0,25.84,23a.68.68,0,0,0-.53,1.26h0"/></g></g></g><rect class="cls-4" x="2.01" y="1.68" width="59.5" height="39" rx="19.5"/></svg>