<svg id="Layer_1" data-name="Layer 1" xmlns="http://www.w3.org/2000/svg" xmlns:xlink="http://www.w3.org/1999/xlink" viewBox="0 0 63.53 42.68"><defs><style>.cls-1,.cls-4{fill:none;}.cls-2{clip-path:url(#clip-path);}.cls-3{fill:gray;}.cls-4{stroke:gray;stroke-miterlimit:10;}</style><clipPath id="clip-path"><rect class="cls-1" x="25.32" y="7.68" width="12.9" height="27.48"/></clipPath></defs><g id="Group_96" data-name="Group 96"><g class="cls-2"><g id="Group_95" data-name="Group 95"><path id="Path_139" data-name="Path 139" class="cls-3" d="M38.22,35.16H25.32V30.59H27l.27-.29a5.71,5.71,0,0,0,2-3.91,4.92,4.92,0,0,0-.34-2.28H27.62V21l-1.4-1.39,4.47-4.47.78.78-3.68,3.69L30.2,22H28.72v1h.94l.14.35a2.44,2.44,0,0,1,.1.24,5.53,5.53,0,0,1,.46,2.78,6.74,6.74,0,0,1-2.25,4.67c-.15.16-.29.31-.41.46l-.17.19H26.42v2.35H37.1V31.7H36l-.16-.19c-.12-.15-.27-.3-.41-.46a6.72,6.72,0,0,1-2.27-4.66,5.66,5.66,0,0,1,.46-2.79l.1-.24.13-.35h1V22h-1.5l2.42-2.42-3.68-3.69.78-.78,4.47,4.47L35.92,21v3.15H34.6a4.92,4.92,0,0,0-.34,2.28,5.71,5.71,0,0,0,2,3.91l.27.29h1.72Z"/><rect id="Rectangle_82" data-name="Rectangle 82" class="cls-3" x="31.21" y="7.68" width="1.11" height="4.82"/><rect id="Rectangle_83" data-name="Rectangle 83" class="cls-3" x="29.91" y="8.98" width="3.71" height="1.11"/><path id="Path_140" data-name="Path 140" class="cls-3" d="M31.77,16.49a2.36,2.36,0,1,1,2.35-2.36h0a2.36,2.36,0,0,1-2.35,2.36m0-3.61A1.25,1.25,0,1,0,33,14.14a1.26,1.26,0,0,0-1.25-1.26"/></g></g></g><rect class="cls-4" x="2.01" y="1.68" width="59.5" height="39" rx="19.5"/></svg>