<svg id="Layer_1" data-name="Layer 1" xmlns="http://www.w3.org/2000/svg" xmlns:xlink="http://www.w3.org/1999/xlink" viewBox="0 0 63.53 42.68"><defs><style>.cls-1,.cls-4{fill:none;}.cls-2{clip-path:url(#clip-path);}.cls-3{fill:gray;}.cls-4{stroke:gray;stroke-miterlimit:10;}</style><clipPath id="clip-path"><rect class="cls-1" x="20.48" y="7.68" width="22.58" height="27.48"/></clipPath></defs><g id="Group_94" data-name="Group 94"><g class="cls-2"><g id="Group_74" data-name="Group 74"><path id="Path_125" data-name="Path 125" class="cls-3" d="M43,19.2a3.7,3.7,0,0,0,.07-.57,11.29,11.29,0,0,0-22.57,0,1.65,1.65,0,0,0,.23.7l8.17,9-.32,1.49a.54.54,0,0,0,.69.63l2-.59v1.71l-1.7,3,.95.54,1.25-2.22,1.36,2.11.92-.59h0l-1.69-2.63V29.9l2,.59a.54.54,0,0,0,.53-.12.55.55,0,0,0,.16-.51l-.43-2ZM31.77,8.77a10.22,10.22,0,0,1,9.8,7.39,4,4,0,0,0-5.58.68,4.28,4.28,0,0,0-.37.57,4.6,4.6,0,0,0-7.72,0,4,4,0,0,0-5.37-1.62,3.47,3.47,0,0,0-.57.37,10.22,10.22,0,0,1,9.81-7.39M21.59,18.68a2.89,2.89,0,0,1,5.69.33h.08l1.26,7.44Zm10.72,9.84a1.43,1.43,0,1,0-1.87-.78,1.45,1.45,0,0,0,.78.78v.25l-1,.31L30,28.22l.06-.28-.1,0L28.43,18.8a3.52,3.52,0,0,1,6.67,0L33.24,29l-.93-.28Zm1.4.67-.36-.11.28-.28ZM36.16,19h.09a2.89,2.89,0,0,1,5.7-.3l-7,7.21Z"/></g></g></g><rect class="cls-4" x="2.01" y="1.68" width="59.5" height="39" rx="19.5"/></svg>