<svg id="Layer_1" data-name="Layer 1" xmlns="http://www.w3.org/2000/svg" xmlns:xlink="http://www.w3.org/1999/xlink" viewBox="0 0 125.28 125.3"><defs><style>.cls-1{fill:none;}.cls-2{clip-path:url(#clip-path);}.cls-3{fill:#fff;}</style><clipPath id="clip-path"><rect class="cls-1" x="29.42" y="30.66" width="54.02" height="61.44"/></clipPath></defs><g class="cls-2"><g id="Group_36" data-name="Group 36"><path id="Path_79" data-name="Path 79" class="cls-3" d="M51.79,31.55A21.49,21.49,0,1,1,30.31,53h0A21.51,21.51,0,0,1,51.79,31.55M74.17,75.42a31.65,31.65,0,0,0,0-44.76h0l-2.09,2.08A28.7,28.7,0,0,1,31.5,73.33l-2.08,2.09a31.54,31.54,0,0,0,21,9.23v4.5H41.19V92.1H62.62V89.16H53.36V84.65a31.66,31.66,0,0,0,20.81-9.23"/></g></g></svg>