<svg id="Layer_1" data-name="Layer 1" xmlns="http://www.w3.org/2000/svg" xmlns:xlink="http://www.w3.org/1999/xlink" viewBox="0 0 120.11 72.07"><defs><style>.cls-1,.cls-4{fill:none;}.cls-2{clip-path:url(#clip-path);}.cls-3{fill:gray;}.cls-4{stroke:#707071;}</style><clipPath id="clip-path"><rect class="cls-1" x="45.92" y="20.63" width="27.58" height="31.23"/></clipPath></defs><g id="Group_57" data-name="Group 57"><g class="cls-2"><g id="Group_38" data-name="Group 38"><path id="Path_80" data-name="Path 80" class="cls-3" d="M57.93,44.66a12,12,0,1,0-12-12h0a12,12,0,0,0,12,12m0-22.58A10.57,10.57,0,1,1,47.36,32.64,10.55,10.55,0,0,1,57.93,22.08m11,21.57a15.56,15.56,0,0,0,0-22h0l-1,1a14.11,14.11,0,0,1-20,20h0l-1,1a15.5,15.5,0,0,0,10.32,4.54v2.22H52.72v1.45H63.25V50.41H58.7V48.19a15.57,15.57,0,0,0,10.24-4.54"/></g></g></g><g id="Rectangle_36" data-name="Rectangle 36"><path class="cls-1" d="M26.18,11.63h68a24,24,0,0,1,24,24h0a24,24,0,0,1-24,24h-68a24,24,0,0,1-24-24h0A24,24,0,0,1,26.18,11.63Z"/><path class="cls-4" d="M26.18,12.13h68a23.5,23.5,0,0,1,23.5,23.5h0a23.5,23.5,0,0,1-23.5,23.5h-68a23.5,23.5,0,0,1-23.5-23.5h0A23.5,23.5,0,0,1,26.18,12.13Z"/></g></svg>