<svg id="Layer_1" data-name="Layer 1" xmlns="http://www.w3.org/2000/svg" xmlns:xlink="http://www.w3.org/1999/xlink" viewBox="0 0 56.26 85.41"><defs><style>.cls-1{fill:none;}.cls-2{clip-path:url(#clip-path);}.cls-3{fill:gray;}</style><clipPath id="clip-path"><rect class="cls-1" x="11.98" y="27.72" width="34.04" height="33.5"/></clipPath></defs><g id="Group_33" data-name="Group 33"><g class="cls-2"><g id="Group_32" data-name="Group 32"><path id="Path_76" data-name="Path 76" class="cls-3" d="M43.94,54.42,46,53.61V53.1a7.7,7.7,0,0,0-.39-2.34l-.16-.5-2.27-.07L43,49.92l.91-2.1-.37-.35a7.13,7.13,0,0,0-.89-.74,8.16,8.16,0,0,0-1-.62l-.46-.24L39.5,47.45l-.29-.06-.85-2.15h-.51a8,8,0,0,0-2.32.4l-.49.16L35,48.11l-.27.17-2.09-.91-.36.36a8.2,8.2,0,0,0-.7.84,8.66,8.66,0,0,0-.66,1.1l-.23.45,1.55,1.65c0,.11-.05.23-.08.33l-2.08.82v.51a7.73,7.73,0,0,0,.42,2.34l.17.49,2.19.07.2.31-.88,2,.38.36a8.1,8.1,0,0,0,.85.7,6.91,6.91,0,0,0,1.11.66l.46.23,1.57-1.47.37.08.78,2h.52a8.17,8.17,0,0,0,2.35-.41l.49-.16.07-2.17.31-.2,2,.87.35-.37a9.07,9.07,0,0,0,.74-.9,7.38,7.38,0,0,0,.63-1l.24-.46-1.52-1.62a3.4,3.4,0,0,0,.07-.34m-.35,2.2a3.51,3.51,0,0,1-.27.4l-.27.36-1.84-.8-.34.28a4.51,4.51,0,0,1-.8.51l-.4.19-.07,2a7.58,7.58,0,0,1-.93.17L38,57.86l-.44,0a4.93,4.93,0,0,1-.94-.21l-.42-.15L34.7,58.81l-.46-.3-.31-.23.8-1.83-.27-.34a4.67,4.67,0,0,1-.51-.82l-.2-.39-2-.07a7,7,0,0,1-.17-.91l1.9-.75.06-.43a4,4,0,0,1,.21-.91l.14-.42-1.42-1.52c.1-.16.2-.3.3-.45l.23-.3L34.9,50l.34-.27a5.35,5.35,0,0,1,.78-.49l.39-.2.07-2.11a6.61,6.61,0,0,1,.89-.15l.77,2,.44.05a5.45,5.45,0,0,1,.89.2l.41.13,1.54-1.44c.14.09.27.17.4.27l.35.26-.84,1.93.27.35a4,4,0,0,1,.49.77l.2.39,2.08.06a7.19,7.19,0,0,1,.15.91l-1.92.75-.05.45a4.12,4.12,0,0,1-.2.91l-.14.42ZM29.28,46.22l2.48,1.06.35-.4a9.61,9.61,0,0,0,.8-1c.24-.34.45-.68.65-1l.27-.48L32,42.46l0-.06,2.68-.32.11-.52a11.16,11.16,0,0,0,.24-2.3v-.71l-2.57-.77v-.05l2.16-1.62-.17-.51a11.72,11.72,0,0,0-1-2.25l-.27-.47-2.6.63,0,0L31.56,31l-.39-.35a12.51,12.51,0,0,0-1-.8c-.34-.23-.68-.45-1-.64l-.47-.27-1.94,1.84-.06,0-.32-2.68L25.83,28a11.88,11.88,0,0,0-2.3-.23h-.72l-.75,2.56H22l-1.62-2.16-.5.17a11,11,0,0,0-2.26,1l-.47.28.63,2.6-.05,0-2.47-1.08-.36.4a11.3,11.3,0,0,0-.8,1c-.24.34-.45.68-.65,1l-.27.48L15,36a.14.14,0,0,0,0,.06l-2.67.31-.11.52A11.09,11.09,0,0,0,12,39.28v.11l0,.54,2.56.75v.06L12.4,42.36l.17.51a12.45,12.45,0,0,0,1,2.26l.28.47,2.6-.64,0,0-1.07,2.48.4.36c.32.27.66.54,1,.8s.68.44,1,.64l.48.27,1.93-1.85.06,0,.32,2.69.52.1a11.25,11.25,0,0,0,2.31.24h.7L25,48.18H25l1.62,2.16.5-.16a11.54,11.54,0,0,0,2.26-1l.47-.28-.63-2.6.05,0m-.63-1.4a7.22,7.22,0,0,1-.68.56l-.39.29.59,2.46a9,9,0,0,1-1,.46l-1.54-2.06-.46.11a7.93,7.93,0,0,1-.85.14l-.5,0-.72,2.46a10,10,0,0,1-1.1-.11l-.3-2.55-.46-.14a7.1,7.1,0,0,1-.81-.3L20,46l-1.84,1.74-.43-.29-.46-.35,1-2.35-.32-.34c-.2-.22-.38-.45-.56-.69l-.28-.4-2.47.6a9.19,9.19,0,0,1-.46-1l2-1.53-.1-.47A7.93,7.93,0,0,1,16,40l0-.49-2.45-.72a10,10,0,0,1,.1-1.1l2.53-.3.15-.45a7.5,7.5,0,0,1,.32-.83l.2-.45L15,33.86l.29-.43c.1-.15.23-.32.35-.47L18,34l.36-.31A8.77,8.77,0,0,1,19,33.1l.39-.29-.59-2.47a10,10,0,0,1,1-.46l1.54,2.05.46-.1a8.74,8.74,0,0,1,.87-.14l.49-.05.71-2.44c.37,0,.74.05,1.1.1l.3,2.54.46.15a7.14,7.14,0,0,1,.81.31l.46.2,1.84-1.75.44.29.46.35-1,2.35.32.35a8.77,8.77,0,0,1,.56.68l.29.4,2.46-.6a9,9,0,0,1,.46,1l-2.05,1.54.1.46a8.79,8.79,0,0,1,.15.87l.05.49,2.44.72a10.06,10.06,0,0,1-.11,1.09l-2.55.31-.14.45a5.48,5.48,0,0,1-.3.8l-.21.46L32,44.61l-.29.43c-.11.16-.23.31-.36.47l-2.34-1Zm-5.14-9.59a4,4,0,1,0,4,4h0a4,4,0,0,0-4-4m0,6.54A2.54,2.54,0,1,1,26,39.23h0a2.55,2.55,0,0,1-2.53,2.53"/></g></g></g></svg>