<svg id="Layer_1" data-name="Layer 1" xmlns="http://www.w3.org/2000/svg" xmlns:xlink="http://www.w3.org/1999/xlink" viewBox="0 0 120.11 72.07"><defs><style>.cls-1,.cls-4{fill:none;}.cls-2{clip-path:url(#clip-path);}.cls-3{fill:gray;}.cls-4{stroke:#707071;}</style><clipPath id="clip-path"><rect class="cls-1" x="43.64" y="21.74" width="31.87" height="29.66"/></clipPath></defs><g id="Group_58" data-name="Group 58"><g class="cls-2"><g id="Group_40" data-name="Group 40"><path id="Path_81" data-name="Path 81" class="cls-3" d="M44.67,48.66c0-1.83,1.7-4.46,4.18-7.76a109.23,109.23,0,0,1,9.43-10.62l.45-.45.45.45,5.58,5.57.45.45-.45.46a110.47,110.47,0,0,1-10.62,9.42c-3.3,2.49-5.93,4.13-7.76,4.18a1.59,1.59,0,0,1-1.71-1.48.81.81,0,0,1,0-.22Zm5.2-7c-2.46,3.17-4,5.95-3.92,7,0,.24,0,.31.08.34s.11.09.35.09c1,0,3.82-1.47,7-3.92a109.63,109.63,0,0,0,10-8.87l-4.67-4.66a108.21,108.21,0,0,0-8.86,10"/><path id="Path_82" data-name="Path 82" class="cls-3" d="M60.24,28.32a90.13,90.13,0,0,1,6.89-6.22l.45-.36,5.73,5.72-.36.45a92.41,92.41,0,0,1-6.23,6.89l-.45.45-.46-.45-5.57-5.57-.45-.45Zm1.36.46,4.67,4.66c1.94-2,3.74-4,5.32-5.89l-4.1-4.09c-1.92,1.58-3.92,3.38-5.89,5.32"/><path id="Path_83" data-name="Path 83" class="cls-3" d="M73.7,29.66l-1.85-1.85.9-.91,2.76,2.76-12,12h0l-.9-.9Z"/><rect id="Rectangle_33" data-name="Rectangle 33" class="cls-3" x="43.78" y="49.56" width="2.11" height="1.28" transform="translate(-22.36 46.33) rotate(-44.94)"/></g></g></g><g id="Rectangle_37" data-name="Rectangle 37"><path class="cls-1" d="M26.08,11.63h67a24,24,0,0,1,24,24h0a24,24,0,0,1-24,24h-67a24,24,0,0,1-24-24h0A24,24,0,0,1,26.08,11.63Z"/><path class="cls-4" d="M26.08,12.13h67a23.5,23.5,0,0,1,23.5,23.5h0a23.5,23.5,0,0,1-23.5,23.5h-67a23.5,23.5,0,0,1-23.5-23.5h0A23.5,23.5,0,0,1,26.08,12.13Z"/></g></svg>