<svg id="Layer_1" data-name="Layer 1" xmlns="http://www.w3.org/2000/svg" xmlns:xlink="http://www.w3.org/1999/xlink" viewBox="0 0 125.28 125.3"><defs><style>.cls-1{fill:none;}.cls-2{clip-path:url(#clip-path);}.cls-3{fill:#fff;}</style><clipPath id="clip-path"><rect class="cls-1" x="27.19" y="31.25" width="57.6" height="61.81"/></clipPath></defs><g id="Group_55" data-name="Group 55"><g class="cls-2"><g id="Group_42" data-name="Group 42"><path id="Path_84" data-name="Path 84" class="cls-3" d="M52.87,48.81,52,48c-4-4-8.12-7.72-12.06-11l2.28-2.3L63.39,55.84l1.72-1.71h0L42.24,31.25l-15,15.06.68.86a172.74,172.74,0,0,0,11.84,13.1l.86.86.85-.86L52,49.68Z"/><path id="Path_85" data-name="Path 85" class="cls-3" d="M84.79,91.34l-3.41-3.41a3.92,3.92,0,0,0,.22-1.31c-.1-3.49-3.22-8.48-7.95-14.76A211.65,211.65,0,0,0,55.74,51.68l-.86-.86-.87.86c-4.34,4.35-4.68,4.7-10.58,10.59l-.86.86.86.86A210.53,210.53,0,0,0,63.6,81.92c6.27,4.72,11.27,7.84,14.75,8h0a3.75,3.75,0,0,0,1.28-.22l3.41,3.41Z"/></g></g></g></svg>