<svg id="Layer_1" data-name="Layer 1" xmlns="http://www.w3.org/2000/svg" xmlns:xlink="http://www.w3.org/1999/xlink" viewBox="0 0 122.68 127.87"><defs><style>.cls-1{fill:none;}.cls-2{clip-path:url(#clip-path);}.cls-3{fill:#fff;}</style><clipPath id="clip-path"><rect class="cls-1" x="24.71" y="25.21" width="63.63" height="61.97"/></clipPath></defs><g id="Group_47" data-name="Group 47"><g class="cls-2"><g id="Group_15" data-name="Group 15"><path id="Path_24" data-name="Path 24" class="cls-3" d="M47,59.13A12.59,12.59,0,0,0,59.3,46.31,12.59,12.59,0,0,0,47,33.49,12.58,12.58,0,0,0,34.62,46.31h0A12.59,12.59,0,0,0,47,59.13M36.45,47.79l.34-3.47a12.39,12.39,0,0,0,1.36.07,16,16,0,0,0,3.09-.31,18.76,18.76,0,0,0,10.38-5.53l.11-.13L53.65,36l1,3a26.09,26.09,0,0,0,1.09,2.69,11.46,11.46,0,0,0,2.59,3.74l-2,2.79a15.67,15.67,0,0,1-3.85-5.63,23.07,23.07,0,0,1-10.58,5,20,20,0,0,1-3.7.38,16,16,0,0,1-1.7-.09"/><path id="Path_25" data-name="Path 25" class="cls-3" d="M87.32,39.26a10.06,10.06,0,0,0-5-13,9.18,9.18,0,0,0-7.45,0,7.41,7.41,0,0,0-3.34-1.06,2.68,2.68,0,0,0-2,.79,2.9,2.9,0,0,0-.76,2.05,8.28,8.28,0,0,0,1,3.48,10.18,10.18,0,0,0,2,10.87,9.33,9.33,0,0,0,6.74,2.9h0a9.16,9.16,0,0,0,3.71-.79,7.48,7.48,0,0,0,3.34,1.08h0a2.62,2.62,0,0,0,2.72-2.52c0-.11,0-.22,0-.33a8,8,0,0,0-1-3.46M71.8,28.38l-.07.09a1.08,1.08,0,0,0,0-.21,1.94,1.94,0,0,1,.2,0l-.08.07m6.75,13.88a6.75,6.75,0,0,1-6.62-6.86h0c0-.13,0-.24,0-.36a41.3,41.3,0,0,0,3.26,3.84,39.2,39.2,0,0,0,3.69,3.37c-.12,0-.23,0-.34,0m4.67-2a6.22,6.22,0,0,1-.92.78,32.19,32.19,0,0,1-5-4.31,33,33,0,0,1-4.15-5.24,6.46,6.46,0,0,1,9.2-1.73A7,7,0,0,1,84,39.31a6.33,6.33,0,0,1-.76.95m2,2.22a.27.27,0,0,1,.08-.07l.07-.09c0,.07,0,.16,0,.21a1.8,1.8,0,0,1-.19-.05"/><path id="Path_26" data-name="Path 26" class="cls-3" d="M60.21,61.52a21.11,21.11,0,0,0,1.42-29A19.25,19.25,0,0,0,33.7,31a21.11,21.11,0,0,0-1.42,29,19.64,19.64,0,0,0,1.42,1.47,9.7,9.7,0,0,0-9,9.83V87.17h5.8V78h2.92v9.18H60.48V78H63.4v9.18h5.8V71.35a9.7,9.7,0,0,0-9-9.82m-29-15.21c0-9,7-16.32,15.69-16.33s15.71,7.3,15.72,16.31-7,16.32-15.7,16.33h0c-8.67,0-15.7-7.3-15.7-16.31h0M42.17,73.64H30.76v-3H42.17ZM30.76,69.07v-3H41.49c.22.07.44.12.67.18v2.88ZM47,85a1.78,1.78,0,1,1,1.7-1.77h0A1.73,1.73,0,0,1,47,85m0-4.81a1.77,1.77,0,1,1,1.7-1.77h0A1.73,1.73,0,0,1,47,80.2m0-4.8a1.75,1.75,0,0,1-1.7-1.78A1.7,1.7,0,1,1,47,75.4m0-4.81a1.77,1.77,0,1,1,1.7-1.77A1.74,1.74,0,0,1,47,70.59m16.19,3H51.73v-3H63.15Zm0-4.56H51.73V66.19c.23,0,.45-.11.67-.18H63.12Z"/></g></g></g></svg>