<svg id="Layer_1" data-name="Layer 1" xmlns="http://www.w3.org/2000/svg" xmlns:xlink="http://www.w3.org/1999/xlink" viewBox="0 0 157.47 85.41"><defs><style>.cls-1{fill:none;}.cls-2{clip-path:url(#clip-path);}.cls-3{fill:gray;}.cls-4{clip-path:url(#clip-path-2);}</style><clipPath id="clip-path"><rect class="cls-1" x="36.24" y="27.72" width="34.4" height="33.5"/></clipPath><clipPath id="clip-path-2"><rect class="cls-1" x="97.27" y="27.72" width="34.04" height="33.5"/></clipPath></defs><g id="Group_18" data-name="Group 18"><g class="cls-2"><g id="Group_17" data-name="Group 17"><path id="Path_27" data-name="Path 27" class="cls-3" d="M56.61,45.47a10.4,10.4,0,1,0-14.72,0,6.41,6.41,0,0,0-5.65,6.36v9.39h26V51.83a6.41,6.41,0,0,0-5.65-6.36M40.36,38.12A8.89,8.89,0,1,1,49.25,47h0a8.9,8.9,0,0,1-8.89-8.89M60.75,59.71h-3V55.14H56.24v4.57h-14V55.14H40.75v4.57h-3V51.83a4.91,4.91,0,0,1,4.9-4.9h1.07a10.33,10.33,0,0,0,11.06,0h1.07a4.92,4.92,0,0,1,4.9,4.9ZM49.25,45.18a7.06,7.06,0,1,0-7.06-7.06,7.07,7.07,0,0,0,7.06,7.06m0-12.61a5.55,5.55,0,1,1-5.55,5.55,5.56,5.56,0,0,1,5.55-5.55m2.46,3.92a6.76,6.76,0,0,0,1.73,2.43l.91-1.2a5.18,5.18,0,0,1-1.16-1.62c-.18-.38-.34-.77-.49-1.16l-.43-1.3L51.4,34.7l0,.06a8.51,8.51,0,0,1-4.67,2.39,7.19,7.19,0,0,1-1.39.13c-.2,0-.41,0-.61,0l-.16,1.5a6.74,6.74,0,0,0,.77,0A8.51,8.51,0,0,0,47,38.63a10.49,10.49,0,0,0,4.75-2.15M49.25,56.87a.88.88,0,0,0,0,1.76.88.88,0,0,0,0-1.76m0-7.17a.88.88,0,1,0,.88.88h0a.87.87,0,0,0-.88-.88m0,2.39a.88.88,0,0,0,0,1.76.88.88,0,0,0,0-1.76h0m0,2.39a.88.88,0,0,0,0,1.76.88.88,0,0,0,0-1.76M40.88,53h5.89V51.46H40.88Zm10.85-2.26h5.9V49.2h-5.9Zm-10.85,0h5.89V49.2H40.88ZM51.73,53h5.9V51.46h-5.9Zm18.39-17.1a4.92,4.92,0,0,0-6.46-6.46,3.93,3.93,0,0,0-1.73-.53,1.35,1.35,0,0,0-1.42,1.42A4.06,4.06,0,0,0,61,32a4.92,4.92,0,0,0,2.61,6.45,4.76,4.76,0,0,0,1.93.39h0a4.83,4.83,0,0,0,1.91-.39,3.93,3.93,0,0,0,1.73.53h0a1.33,1.33,0,0,0,1.4-1.27v-.15a3.93,3.93,0,0,0-.53-1.72m-8-5.41,0,0a.61.61,0,0,1,0-.11l.11,0a.08.08,0,0,0,0,0m3.48,6.9a3.42,3.42,0,0,1-3.42-3.42c0-.06,0-.12,0-.18a20.2,20.2,0,0,0,1.67,1.91,21.74,21.74,0,0,0,1.91,1.67l-.18,0m2.42-1a3.48,3.48,0,0,1-.48.38,16.18,16.18,0,0,1-2.6-2.14A16.79,16.79,0,0,1,62.77,32a4.54,4.54,0,0,1,.39-.48A3.42,3.42,0,0,1,68,36.32l0,0m1,1.1,0,0,0,0a.52.52,0,0,1,0,.11l-.1,0"/></g></g></g><g id="Group_33" data-name="Group 33"><g class="cls-4"><g id="Group_32" data-name="Group 32"><path id="Path_76" data-name="Path 76" class="cls-3" d="M129.23,54.42l2.08-.81V53.1a8.37,8.37,0,0,0-.39-2.34l-.16-.5-2.28-.07c-.05-.09-.11-.18-.17-.27l.92-2.1-.37-.35a9,9,0,0,0-.89-.74,8.27,8.27,0,0,0-1-.62l-.46-.24-1.69,1.58-.29-.06-.85-2.15h-.51a8,8,0,0,0-2.32.4l-.49.16-.07,2.3-.26.17-2.1-.91-.35.36a7.08,7.08,0,0,0-.7.84,7.63,7.63,0,0,0-.66,1.1l-.23.45,1.54,1.65c0,.11,0,.23-.07.33l-2.09.82,0,.51a7.73,7.73,0,0,0,.42,2.34l.16.49,2.2.07.2.31-.88,2,.38.36a8.1,8.1,0,0,0,.85.7,7.28,7.28,0,0,0,1.1.66l.46.23,1.57-1.47.37.08.79,2h.51a8.17,8.17,0,0,0,2.35-.41l.49-.16.08-2.17.3-.2,2,.87.35-.37a9.17,9.17,0,0,0,.75-.9,9.91,9.91,0,0,0,.63-1l.23-.46-1.51-1.62c0-.11.05-.22.07-.34m-.36,2.2c-.08.14-.17.27-.26.4l-.28.36-1.83-.8-.35.28a4.51,4.51,0,0,1-.8.51l-.4.19-.07,2a7.1,7.1,0,0,1-.92.17l-.73-1.85-.44,0a5.1,5.1,0,0,1-.94-.21l-.42-.15L120,58.81l-.45-.3-.31-.23.8-1.83-.28-.34a5.34,5.34,0,0,1-.51-.82l-.2-.39-2-.07a6.93,6.93,0,0,1-.16-.91l1.9-.75,0-.43a4.63,4.63,0,0,1,.21-.91l.14-.42-1.41-1.52c.09-.16.19-.3.29-.45l.23-.3,1.92.84.35-.27a4.46,4.46,0,0,1,.78-.49l.38-.2.07-2.11a7,7,0,0,1,.9-.15l.77,2,.43.05a5.45,5.45,0,0,1,.89.2l.42.13,1.54-1.44c.13.09.27.17.4.27l.34.26-.84,1.93.28.35a3.56,3.56,0,0,1,.48.77l.2.39,2.08.06a7.19,7.19,0,0,1,.15.91l-1.91.75,0,.45a5.69,5.69,0,0,1-.2.91l-.14.42Zm-14.3-10.39L117,47.28l.36-.4a11.15,11.15,0,0,0,.8-1,11.42,11.42,0,0,0,.64-1l.27-.48-1.84-1.93,0-.06,2.68-.32.1-.52a11.16,11.16,0,0,0,.24-2.3v-.71l-2.57-.77v-.05l2.17-1.62-.17-.51a12.36,12.36,0,0,0-1-2.25l-.28-.47-2.6.63a.1.1,0,0,0,0,0L116.84,31l-.39-.35a11,11,0,0,0-1-.8,9.85,9.85,0,0,0-1-.64l-.47-.27L112,30.76l-.06,0-.33-2.68-.52-.11a11.7,11.7,0,0,0-2.29-.23h-.73l-.75,2.56h-.06l-1.61-2.16-.5.17a11.1,11.1,0,0,0-2.27,1l-.46.28.62,2.6,0,0-2.48-1.08-.35.4a8.55,8.55,0,0,0-.8,1,11.57,11.57,0,0,0-.65,1l-.27.48L100.31,36a.14.14,0,0,1,0,.06l-2.67.31-.11.52a11.76,11.76,0,0,0-.24,2.37v.65l2.56.75v.06l-2.17,1.62.17.51a12.49,12.49,0,0,0,1,2.26l.27.47,2.6-.64,0,0-1.06,2.48.4.36c.32.27.65.54,1,.8s.68.44,1,.64l.47.27,1.94-1.85.06,0,.31,2.69.53.1a11.18,11.18,0,0,0,2.31.24h.7l.76-2.59h.06l1.61,2.16.5-.16a11.89,11.89,0,0,0,2.27-1l.46-.28-.62-2.6,0,0m-.64-1.4a6.13,6.13,0,0,1-.68.56l-.39.29.6,2.46a10,10,0,0,1-1,.46l-1.54-2.06-.47.11a8.17,8.17,0,0,1-.84.14l-.5,0-.73,2.46a10.5,10.5,0,0,1-1.1-.11l-.3-2.55-.46-.14a7.87,7.87,0,0,1-.81-.3l-.45-.2-1.84,1.74c-.15-.09-.29-.19-.43-.29l-.47-.35,1-2.35-.32-.34a7.34,7.34,0,0,1-.56-.69l-.29-.4-2.47.6c-.17-.33-.32-.66-.46-1l2.06-1.53-.11-.47a7.91,7.91,0,0,1-.13-.85l0-.49-2.45-.72a10,10,0,0,1,.11-1.1l2.53-.3.15-.45c.09-.29.2-.56.31-.83l.2-.45-1.75-1.84.29-.43A4.91,4.91,0,0,1,101,33l2.34,1,.35-.31c.23-.2.46-.39.68-.56l.4-.29-.59-2.47a9,9,0,0,1,1-.46l1.53,2.05.47-.1a8.11,8.11,0,0,1,.86-.14l.49-.05.72-2.44c.37,0,.73.05,1.1.1l.3,2.54.45.15a8.11,8.11,0,0,1,.82.31l.45.2,1.85-1.75.43.29.47.35-1,2.35.33.35c.2.22.38.45.56.68l.29.4,2.46-.6c.17.32.32.66.46,1l-2.05,1.54.1.46a8.74,8.74,0,0,1,.14.87l.06.49,2.43.72a8.05,8.05,0,0,1-.11,1.09l-2.55.31-.13.45c-.09.28-.19.54-.3.8l-.21.46,1.75,1.85c-.09.14-.18.29-.28.43l-.36.47-2.35-1Zm-5.14-9.59a4,4,0,1,0,4,4h0a4,4,0,0,0-4-4m0,6.54a2.54,2.54,0,1,1,2.53-2.54h0a2.54,2.54,0,0,1-2.53,2.53"/></g></g></g></svg>