<svg id="Layer_1" data-name="Layer 1" xmlns="http://www.w3.org/2000/svg" viewBox="0 0 125.3 125.3"><defs><style>.cls-1{fill:#fff;}</style></defs><g id="Group_34" data-name="Group 34"><path id="Path_77" data-name="Path 77" class="cls-1" d="M50.34,64,55,66l.66-.75a22.06,22.06,0,0,0,1.49-1.86c.45-.64.85-1.28,1.22-1.92l.5-.9L55.4,56.91l0-.1,5-.61.2-1a20.82,20.82,0,0,0,.45-4.31V49.6L56.3,48.17v-.1l4.06-3-.32-1a23.4,23.4,0,0,0-1.93-4.23L57.59,39l-4.88,1.18-.07-.09,2-4.64-.74-.66Q53,34,52,33.25c-.63-.43-1.28-.84-1.94-1.21l-.89-.49L45.54,35l-.11,0-.6-5-1-.2a21.34,21.34,0,0,0-4.3-.44H39.2l-1,0L36.78,34.1h-.11l-3-4-.94.31a20.94,20.94,0,0,0-4.25,1.95l-.87.52,1.17,4.87-.08.07-4.65-2-.66.75a20.7,20.7,0,0,0-1.49,1.87c-.45.64-.85,1.28-1.22,1.92l-.51.9,3.46,3.64a.36.36,0,0,0,0,.11l-5,.58-.2,1A21.5,21.5,0,0,0,17.88,51v.2l0,1,4.8,1.42v.09l-4.06,3,.32,1a22.9,22.9,0,0,0,2,4.24l.52.88,4.88-1.18a.27.27,0,0,1,.07.08l-2,4.66.75.66A22.2,22.2,0,0,0,27,68.53c.63.44,1.27.84,1.91,1.2l.89.51,3.63-3.45.11,0,.59,5,1,.19a21.11,21.11,0,0,0,4.34.45h.25l1.06,0,1.43-4.85h.11l3,4,.95-.31a20.78,20.78,0,0,0,4.24-1.93L51.4,69l-1.16-4.89.1-.09m-10.82-5.6A7.52,7.52,0,1,1,47,50.84v0a7.52,7.52,0,0,1-7.51,7.52"/><path id="Path_78" data-name="Path 78" class="cls-1" d="M77.83,79.36l3.9-1.51v-1A14.87,14.87,0,0,0,81,72.5l-.3-.93-4.27-.13-.31-.5L77.81,67l-.69-.66a15.31,15.31,0,0,0-3.59-2.55l-.87-.45-3.17,3a5.41,5.41,0,0,0-.55-.12l-1.59-4h-1a15,15,0,0,0-4.35.74l-.92.31L61,67.55l-.49.31-3.93-1.71-.66.68a14.06,14.06,0,0,0-1.32,1.57,15.85,15.85,0,0,0-1.24,2.06l-.43.87,2.9,3.09c-.05.2-.1.41-.14.62l-3.91,1.52,0,1a14.54,14.54,0,0,0,.8,4.38l.31.91L57,83c.12.2.24.37.38.58l-1.66,3.76.72.67A16.86,16.86,0,0,0,58,89.3a15,15,0,0,0,2.08,1.24L61,91l3-2.78a5.32,5.32,0,0,0,.69.16l1.49,3.78,1,0a15.38,15.38,0,0,0,4.41-.74l.92-.3L72.53,87a5.72,5.72,0,0,0,.58-.37l3.76,1.64.67-.7a15.89,15.89,0,0,0,1.39-1.68,15.45,15.45,0,0,0,1.18-1.94l.45-.87-2.85-3c.05-.21.1-.42.14-.63"/></g></svg>