<svg id="Layer_1" data-name="Layer 1" xmlns="http://www.w3.org/2000/svg" xmlns:xlink="http://www.w3.org/1999/xlink" viewBox="0 0 120.11 72.07"><defs><style>.cls-1,.cls-4{fill:none;}.cls-2{clip-path:url(#clip-path);}.cls-3{fill:gray;}.cls-4{stroke:#707071;}</style><clipPath id="clip-path"><rect class="cls-1" x="47.24" y="20.63" width="30.06" height="32.55"/></clipPath></defs><g id="Group_56" data-name="Group 56"><g class="cls-2"><g id="Group_19" data-name="Group 19"><path id="Path_28" data-name="Path 28" class="cls-3" d="M64.42,29.44a3,3,0,0,0,2.09,5.09h0a3,3,0,0,0,2.09-.86l-.48-.49.48.49a3,3,0,0,0-4.19-4.22m3.69,2.11a1.59,1.59,0,1,1-3.18,0,1.59,1.59,0,0,1,3.18,0m9.19-8.44a2.49,2.49,0,1,0-5,0,2.92,2.92,0,0,0,0,.5,2.47,2.47,0,0,0-2.95,1.89,2.33,2.33,0,0,0-.06.53,2.4,2.4,0,0,0,.15.84L68,25.32h-.31l-6.16.34L47.24,39.77l4.63,4.66-.95,1.9L56.5,49.1l1.6,1.62.56-.55,6.07,3,9-17.94-1-3.71.09-1.38-.64-.64L72,29l-.73-.36L71,28.36a2.25,2.25,0,0,0,.85.16h0a2.47,2.47,0,0,0,1.74-.72l-.48-.49.49.49A2.47,2.47,0,0,0,74.34,26a2.73,2.73,0,0,0,0-.5,2.33,2.33,0,0,0,.53.06h0a2.51,2.51,0,0,0,1.75-.72l-.49-.49.49.49a2.49,2.49,0,0,0,.73-1.77M52.78,45.7l.11-.24.59.6Zm11.33,5.63-4.42-2.19,10.9-10.78Zm7.25-20.65L71,36,58.11,48.76l-8.92-9L62.1,27l5.33-.29Zm1.27-3.86a1.11,1.11,0,0,1-1.56-1.57h0a1.11,1.11,0,0,1,1.57,0,1.1,1.1,0,0,1,0,1.56m3-2.93h0a1.12,1.12,0,0,1-1.57,0,1.1,1.1,0,0,1,0-1.56h0a1.1,1.1,0,0,1,1.56,0,1.14,1.14,0,0,1,.32.78,1.16,1.16,0,0,1-.32.79"/></g></g></g><g id="Rectangle_36" data-name="Rectangle 36"><path class="cls-1" d="M26.05,11.63h68a24,24,0,0,1,24,24h0a24,24,0,0,1-24,24h-68a24,24,0,0,1-24-24h0A24,24,0,0,1,26.05,11.63Z"/><path class="cls-4" d="M26.05,12.13h68a23.5,23.5,0,0,1,23.5,23.5h0a23.5,23.5,0,0,1-23.5,23.5h-68a23.5,23.5,0,0,1-23.5-23.5h0A23.5,23.5,0,0,1,26.05,12.13Z"/></g></svg>