<svg id="Layer_1" data-name="Layer 1" xmlns="http://www.w3.org/2000/svg" xmlns:xlink="http://www.w3.org/1999/xlink" viewBox="0 0 157.47 85.41"><defs><style>.cls-1{fill:none;}.cls-2{clip-path:url(#clip-path);}.cls-3{fill:gray;}</style><clipPath id="clip-path"><rect class="cls-1" x="36.24" y="27.72" width="34.4" height="33.5"/></clipPath></defs><g id="Group_18" data-name="Group 18"><g class="cls-2"><g id="Group_17" data-name="Group 17"><path id="Path_27" data-name="Path 27" class="cls-3" d="M56.61,45.47a10.4,10.4,0,1,0-14.72,0,6.41,6.41,0,0,0-5.65,6.36v9.39h26V51.83a6.41,6.41,0,0,0-5.65-6.36M40.36,38.12A8.89,8.89,0,1,1,49.25,47h0a8.9,8.9,0,0,1-8.89-8.89M60.75,59.71h-3V55.14H56.24v4.57h-14V55.14H40.75v4.57h-3V51.83a4.91,4.91,0,0,1,4.9-4.9h1.07a10.33,10.33,0,0,0,11.06,0h1.07a4.92,4.92,0,0,1,4.9,4.9ZM49.25,45.18a7.06,7.06,0,1,0-7.06-7.06,7.07,7.07,0,0,0,7.06,7.06m0-12.61a5.55,5.55,0,1,1-5.55,5.55,5.56,5.56,0,0,1,5.55-5.55m2.46,3.92a6.76,6.76,0,0,0,1.73,2.43l.91-1.2a5.18,5.18,0,0,1-1.16-1.62c-.18-.38-.34-.77-.49-1.16l-.43-1.3L51.4,34.7l0,.06a8.51,8.51,0,0,1-4.67,2.39,7.19,7.19,0,0,1-1.39.13c-.2,0-.41,0-.61,0l-.16,1.5a6.74,6.74,0,0,0,.77,0A8.51,8.51,0,0,0,47,38.63a10.49,10.49,0,0,0,4.75-2.15M49.25,56.87a.88.88,0,0,0,0,1.76.88.88,0,0,0,0-1.76m0-7.17a.88.88,0,1,0,.88.88h0a.87.87,0,0,0-.88-.88m0,2.39a.88.88,0,0,0,0,1.76.88.88,0,0,0,0-1.76h0m0,2.39a.88.88,0,0,0,0,1.76.88.88,0,0,0,0-1.76M40.88,53h5.89V51.46H40.88Zm10.85-2.26h5.9V49.2h-5.9Zm-10.85,0h5.89V49.2H40.88ZM51.73,53h5.9V51.46h-5.9Zm18.39-17.1a4.92,4.92,0,0,0-6.46-6.46,3.93,3.93,0,0,0-1.73-.53,1.35,1.35,0,0,0-1.42,1.42A4.06,4.06,0,0,0,61,32a4.92,4.92,0,0,0,2.61,6.45,4.76,4.76,0,0,0,1.93.39h0a4.83,4.83,0,0,0,1.91-.39,3.93,3.93,0,0,0,1.73.53h0a1.33,1.33,0,0,0,1.4-1.27v-.15a3.93,3.93,0,0,0-.53-1.72m-8-5.41,0,0a.61.61,0,0,1,0-.11l.11,0a.08.08,0,0,0,0,0m3.48,6.9a3.42,3.42,0,0,1-3.42-3.42c0-.06,0-.12,0-.18a20.2,20.2,0,0,0,1.67,1.91,21.74,21.74,0,0,0,1.91,1.67l-.18,0m2.42-1a3.48,3.48,0,0,1-.48.38,16.18,16.18,0,0,1-2.6-2.14A16.79,16.79,0,0,1,62.77,32a4.54,4.54,0,0,1,.39-.48A3.42,3.42,0,0,1,68,36.32l0,0m1,1.1,0,0,0,0a.52.52,0,0,1,0,.11l-.1,0"/></g></g></g></svg>