<svg id="Layer_1" data-name="Layer 1" xmlns="http://www.w3.org/2000/svg" xmlns:xlink="http://www.w3.org/1999/xlink" viewBox="0 0 56.26 85.41"><defs><style>.cls-1,.cls-4{fill:none;}.cls-2{clip-path:url(#clip-path);}.cls-3{fill:gray;}.cls-4{stroke:#272525;stroke-miterlimit:10;}</style><clipPath id="clip-path"><rect class="cls-1" x="11.22" y="27.72" width="34.4" height="33.5"/></clipPath></defs><g id="Group_18" data-name="Group 18"><g class="cls-2"><g id="Group_17" data-name="Group 17"><path id="Path_27" data-name="Path 27" class="cls-3" d="M31.59,45.47a10.4,10.4,0,1,0-14.72,0,6.41,6.41,0,0,0-5.65,6.36v9.39h26V51.83a6.41,6.41,0,0,0-5.65-6.36M15.33,38.12A8.9,8.9,0,1,1,24.23,47h0a8.91,8.91,0,0,1-8.9-8.89m20.4,21.59h-3V55.14H31.22v4.57h-14V55.14H15.72v4.57h-3V51.83a4.92,4.92,0,0,1,4.9-4.9h1.07a10.35,10.35,0,0,0,11.07,0h1.07a4.92,4.92,0,0,1,4.9,4.9ZM24.23,45.18a7.06,7.06,0,1,0-7.06-7.06,7.06,7.06,0,0,0,7.06,7.06m0-12.61a5.55,5.55,0,1,1-5.55,5.55,5.55,5.55,0,0,1,5.55-5.55m2.46,3.92a6.64,6.64,0,0,0,1.73,2.43l.91-1.2a5,5,0,0,1-1.16-1.62c-.18-.38-.35-.77-.49-1.16l-.44-1.3-.86,1.06-.05.06a8.54,8.54,0,0,1-4.67,2.39,7.19,7.19,0,0,1-1.39.13c-.2,0-.41,0-.61,0l-.16,1.5a6.62,6.62,0,0,0,.77,0,8.34,8.34,0,0,0,1.66-.16,10.53,10.53,0,0,0,4.76-2.15M24.23,56.87a.88.88,0,1,0,.88.88.88.88,0,0,0-.88-.88m0-7.17a.88.88,0,1,0,.88.88h0a.88.88,0,0,0-.88-.88m0,2.39a.88.88,0,1,0,.88.88.88.88,0,0,0-.88-.88h0m0,2.39a.88.88,0,1,0,.88.88.88.88,0,0,0-.88-.88M15.86,53h5.89V51.46H15.86Zm10.85-2.26h5.9V49.2h-5.9Zm-10.85,0h5.89V49.2H15.86ZM26.71,53h5.9V51.46h-5.9Zm18.38-17.1a4.92,4.92,0,0,0-2.6-6.46,4.86,4.86,0,0,0-3.85,0,3.93,3.93,0,0,0-1.73-.53,1.35,1.35,0,0,0-1.42,1.42A3.93,3.93,0,0,0,36,32a4.92,4.92,0,0,0,2.61,6.45,4.73,4.73,0,0,0,1.93.39h0a4.88,4.88,0,0,0,1.92-.39,3.93,3.93,0,0,0,1.73.53h0a1.34,1.34,0,0,0,1.4-1.27v-.15a4.06,4.06,0,0,0-.53-1.72m-8-5.41,0,0s0-.08,0-.11l.1,0,0,0m3.49,6.9a3.42,3.42,0,0,1-3.42-3.42c0-.06,0-.12,0-.18a20.31,20.31,0,0,0,1.68,1.91,21.74,21.74,0,0,0,1.91,1.67l-.18,0m2.41-1a2.89,2.89,0,0,1-.47.38,16.18,16.18,0,0,1-2.6-2.14A16.79,16.79,0,0,1,37.75,32a4.54,4.54,0,0,1,.39-.48A3.42,3.42,0,0,1,43,36.32l-.05,0m1,1.1,0,0,0,0a.52.52,0,0,1,0,.11l-.1,0"/></g></g></g><rect class="cls-4" x="1.09" width="55.18" height="85.41"/></svg>